<svg xmlns="http://www.w3.org/2000/svg" style="display: none;">
    <symbol
      id="icon-floppy"
      viewBox="0 0 28 28"
      fill="none"
      xmlns="http://www.w3.org/2000/svg"
    >
      <rect width="2.15385" height="2.15385" fill="currentColor" />
      <rect y="2.15381" width="2.15385" height="2.15385" fill="currentColor" />
      <rect y="4.30762" width="2.15385" height="2.15385" fill="currentColor" />
      <rect y="6.46143" width="2.15385" height="2.15385" fill="currentColor" />
      <rect y="8.61523" width="2.15385" height="2.15385" fill="currentColor" />
      <rect y="10.769" width="2.15385" height="2.15385" fill="currentColor" />
      <rect y="12.9233" width="2.15385" height="2.15385" fill="currentColor" />
      <rect y="15.0767" width="2.15385" height="2.15385" fill="currentColor" />
      <rect y="17.231" width="2.15385" height="2.15385" fill="currentColor" />
      <rect y="19.3848" width="2.15385" height="2.15385" fill="currentColor" />
      <rect y="21.5386" width="2.15385" height="2.15385" fill="currentColor" />
      <rect y="23.6924" width="2.15385" height="2.15385" fill="currentColor" />
      <rect y="25.8462" width="2.15385" height="2.15385" fill="currentColor" />
      <rect
        x="23.6927"
        width="2.15385"
        height="2.15385"
        transform="rotate(90 23.6927 0)"
        fill="currentColor"
      />
      <rect
        x="21.5391"
        width="2.15385"
        height="2.15385"
        transform="rotate(90 21.5391 0)"
        fill="currentColor"
      />
      <rect
        x="19.3841"
        width="2.15385"
        height="2.15385"
        transform="rotate(90 19.3841 0)"
        fill="currentColor"
      />
      <rect
        x="17.2305"
        width="2.15385"
        height="2.15385"
        transform="rotate(90 17.2305 0)"
        fill="currentColor"
      />
      <rect
        x="15.0768"
        width="2.15385"
        height="2.15385"
        transform="rotate(90 15.0768 0)"
        fill="currentColor"
      />
      <rect
        x="12.9232"
        width="2.15385"
        height="2.15385"
        transform="rotate(90 12.9232 0)"
        fill="currentColor"
      />
      <rect
        x="10.7695"
        width="2.15385"
        height="2.15385"
        transform="rotate(90 10.7695 0)"
        fill="currentColor"
      />
      <rect
        x="8.61589"
        width="2.15385"
        height="2.15385"
        transform="rotate(90 8.61589 0)"
        fill="currentColor"
      />
      <rect
        x="6.46094"
        width="2.15385"
        height="2.15385"
        transform="rotate(90 6.46094 0)"
        fill="currentColor"
      />
      <rect
        x="4.3073"
        width="2.15385"
        height="2.15385"
        transform="rotate(90 4.3073 0)"
        fill="currentColor"
      />
      <rect
        x="25.8464"
        y="2.15381"
        width="2.15385"
        height="2.15385"
        transform="rotate(90 25.8464 2.15381)"
        fill="currentColor"
      />
      <rect
        x="6.46094"
        y="4.30762"
        width="2.15385"
        height="2.15385"
        transform="rotate(90 6.46094 4.30762)"
        fill="currentColor"
      />
      <rect
        x="6.46094"
        y="2.15381"
        width="2.15385"
        height="2.15385"
        transform="rotate(90 6.46094 2.15381)"
        fill="currentColor"
      />
      <rect
        x="6.46094"
        y="6.46143"
        width="2.15385"
        height="2.15385"
        transform="rotate(90 6.46094 6.46143)"
        fill="currentColor"
      />
      <rect
        x="21.5391"
        y="4.30762"
        width="2.15385"
        height="2.15385"
        transform="rotate(90 21.5391 4.30762)"
        fill="currentColor"
      />
      <rect
        x="21.5391"
        y="2.15381"
        width="2.15385"
        height="2.15385"
        transform="rotate(90 21.5391 2.15381)"
        fill="currentColor"
      />
      <rect
        x="21.5391"
        y="6.46143"
        width="2.15385"
        height="2.15385"
        transform="rotate(90 21.5391 6.46143)"
        fill="currentColor"
      />
      <rect
        x="17.2305"
        y="4.30762"
        width="2.15385"
        height="2.15385"
        transform="rotate(90 17.2305 4.30762)"
        fill="currentColor"
      />
      <rect
        x="17.2305"
        y="2.15381"
        width="2.15385"
        height="2.15385"
        transform="rotate(90 17.2305 2.15381)"
        fill="currentColor"
      />
      <rect
        x="17.2305"
        y="6.46143"
        width="2.15385"
        height="2.15385"
        transform="rotate(90 17.2305 6.46143)"
        fill="currentColor"
      />
      <rect
        x="21.5391"
        y="8.61523"
        width="2.15385"
        height="2.15385"
        transform="rotate(90 21.5391 8.61523)"
        fill="currentColor"
      />
      <rect
        x="19.3841"
        y="8.61523"
        width="2.15385"
        height="2.15385"
        transform="rotate(90 19.3841 8.61523)"
        fill="currentColor"
      />
      <rect
        x="17.2305"
        y="8.61523"
        width="2.15385"
        height="2.15385"
        transform="rotate(90 17.2305 8.61523)"
        fill="currentColor"
      />
      <rect
        x="15.0768"
        y="8.61523"
        width="2.15385"
        height="2.15385"
        transform="rotate(90 15.0768 8.61523)"
        fill="currentColor"
      />
      <rect
        x="12.9232"
        y="8.61523"
        width="2.15385"
        height="2.15385"
        transform="rotate(90 12.9232 8.61523)"
        fill="currentColor"
      />
      <rect
        x="10.7695"
        y="8.61523"
        width="2.15385"
        height="2.15385"
        transform="rotate(90 10.7695 8.61523)"
        fill="currentColor"
      />
      <rect
        x="8.61589"
        y="8.61523"
        width="2.15385"
        height="2.15385"
        transform="rotate(90 8.61589 8.61523)"
        fill="currentColor"
      />
      <rect
        x="6.46094"
        y="8.61523"
        width="2.15385"
        height="2.15385"
        transform="rotate(90 6.46094 8.61523)"
        fill="currentColor"
      />
      <rect
        x="23.6927"
        y="15.0767"
        width="2.15385"
        height="2.15385"
        transform="rotate(90 23.6927 15.0767)"
        fill="currentColor"
      />
      <rect
        x="21.5391"
        y="15.0767"
        width="2.15385"
        height="2.15385"
        transform="rotate(90 21.5391 15.0767)"
        fill="currentColor"
      />
      <rect
        x="19.3841"
        y="15.0767"
        width="2.15385"
        height="2.15385"
        transform="rotate(90 19.3841 15.0767)"
        fill="currentColor"
      />
      <rect
        x="17.2305"
        y="15.0767"
        width="2.15385"
        height="2.15385"
        transform="rotate(90 17.2305 15.0767)"
        fill="currentColor"
      />
      <rect
        x="15.0768"
        y="15.0767"
        width="2.15385"
        height="2.15385"
        transform="rotate(90 15.0768 15.0767)"
        fill="currentColor"
      />
      <rect
        x="12.9232"
        y="15.0767"
        width="2.15385"
        height="2.15385"
        transform="rotate(90 12.9232 15.0767)"
        fill="currentColor"
      />
      <rect
        x="10.7695"
        y="15.0767"
        width="2.15385"
        height="2.15385"
        transform="rotate(90 10.7695 15.0767)"
        fill="currentColor"
      />
      <rect
        x="8.61589"
        y="15.0767"
        width="2.15385"
        height="2.15385"
        transform="rotate(90 8.61589 15.0767)"
        fill="currentColor"
      />
      <rect
        x="6.46094"
        y="15.0767"
        width="2.15385"
        height="2.15385"
        transform="rotate(90 6.46094 15.0767)"
        fill="currentColor"
      />
      <rect
        x="23.6927"
        y="17.231"
        width="2.15385"
        height="2.15385"
        transform="rotate(90 23.6927 17.231)"
        fill="currentColor"
      />
      <rect
        x="6.46094"
        y="17.231"
        width="2.15385"
        height="2.15385"
        transform="rotate(90 6.46094 17.231)"
        fill="currentColor"
      />
      <rect
        x="23.6927"
        y="19.3848"
        width="2.15385"
        height="2.15385"
        transform="rotate(90 23.6927 19.3848)"
        fill="currentColor"
      />
      <rect
        x="6.46094"
        y="19.3848"
        width="2.15385"
        height="2.15385"
        transform="rotate(90 6.46094 19.3848)"
        fill="currentColor"
      />
      <rect
        x="23.6927"
        y="21.5386"
        width="2.15385"
        height="2.15385"
        transform="rotate(90 23.6927 21.5386)"
        fill="currentColor"
      />
      <rect
        x="6.46094"
        y="21.5386"
        width="2.15385"
        height="2.15385"
        transform="rotate(90 6.46094 21.5386)"
        fill="currentColor"
      />
      <rect
        x="6.46094"
        y="23.6924"
        width="2.15385"
        height="2.15385"
        transform="rotate(90 6.46094 23.6924)"
        fill="currentColor"
      />
      <rect
        x="23.6927"
        y="23.6924"
        width="2.15385"
        height="2.15385"
        transform="rotate(90 23.6927 23.6924)"
        fill="currentColor"
      />
      <rect
        x="25.8464"
        y="25.8462"
        width="2.15385"
        height="2.15385"
        transform="rotate(90 25.8464 25.8462)"
        fill="currentColor"
      />
      <rect
        x="23.6927"
        y="25.8462"
        width="2.15385"
        height="2.15385"
        transform="rotate(90 23.6927 25.8462)"
        fill="currentColor"
      />
      <rect
        x="21.5391"
        y="25.8462"
        width="2.15385"
        height="2.15385"
        transform="rotate(90 21.5391 25.8462)"
        fill="currentColor"
      />
      <rect
        x="19.3841"
        y="25.8462"
        width="2.15385"
        height="2.15385"
        transform="rotate(90 19.3841 25.8462)"
        fill="currentColor"
      />
      <rect
        x="17.2305"
        y="25.8462"
        width="2.15385"
        height="2.15385"
        transform="rotate(90 17.2305 25.8462)"
        fill="currentColor"
      />
      <rect
        x="15.0768"
        y="25.8462"
        width="2.15385"
        height="2.15385"
        transform="rotate(90 15.0768 25.8462)"
        fill="currentColor"
      />
      <rect
        x="12.9232"
        y="25.8462"
        width="2.15385"
        height="2.15385"
        transform="rotate(90 12.9232 25.8462)"
        fill="currentColor"
      />
      <rect
        x="10.7695"
        y="25.8462"
        width="2.15385"
        height="2.15385"
        transform="rotate(90 10.7695 25.8462)"
        fill="currentColor"
      />
      <rect
        x="8.61589"
        y="25.8462"
        width="2.15385"
        height="2.15385"
        transform="rotate(90 8.61589 25.8462)"
        fill="currentColor"
      />
      <rect
        x="6.46094"
        y="25.8462"
        width="2.15385"
        height="2.15385"
        transform="rotate(90 6.46094 25.8462)"
        fill="currentColor"
      />
      <rect
        x="4.3073"
        y="25.8462"
        width="2.15385"
        height="2.15385"
        transform="rotate(90 4.3073 25.8462)"
        fill="currentColor"
      />
      <rect
        x="28"
        y="28"
        width="2.15385"
        height="2.15385"
        transform="rotate(-180 28 28)"
        fill="currentColor"
      />
      <rect
        x="28"
        y="25.8462"
        width="2.15385"
        height="2.15385"
        transform="rotate(-180 28 25.8462)"
        fill="currentColor"
      />
      <rect
        x="28"
        y="23.6924"
        width="2.15385"
        height="2.15385"
        transform="rotate(-180 28 23.6924)"
        fill="currentColor"
      />
      <rect
        x="28"
        y="21.5386"
        width="2.15385"
        height="2.15385"
        transform="rotate(-180 28 21.5386)"
        fill="currentColor"
      />
      <rect
        x="28"
        y="19.3848"
        width="2.15385"
        height="2.15385"
        transform="rotate(-180 28 19.3848)"
        fill="currentColor"
      />
      <rect
        x="28"
        y="17.231"
        width="2.15385"
        height="2.15385"
        transform="rotate(-180 28 17.231)"
        fill="currentColor"
      />
      <rect
        x="28"
        y="15.0767"
        width="2.15385"
        height="2.15385"
        transform="rotate(-180 28 15.0767)"
        fill="currentColor"
      />
      <rect
        x="28"
        y="12.9233"
        width="2.15385"
        height="2.15385"
        transform="rotate(-180 28 12.9233)"
        fill="currentColor"
      />
      <rect
        x="28"
        y="10.769"
        width="2.15385"
        height="2.15385"
        transform="rotate(-180 28 10.769)"
        fill="currentColor"
      />
      <rect
        x="28"
        y="8.61523"
        width="2.15385"
        height="2.15385"
        transform="rotate(-180 28 8.61523)"
        fill="currentColor"
      />
      <rect
        x="28"
        y="6.46143"
        width="2.15385"
        height="2.15385"
        transform="rotate(-180 28 6.46143)"
        fill="currentColor"
      />
    </symbol>
</svg>