<svg xmlns="http://www.w3.org/2000/svg">
  <!-- Иконка дискеты -->
  <symbol id="floppy">
<rect width="3" height="3" fill="currentColor"/>
<rect y="3" width="3" height="3" fill="currentColor"/>
<rect y="6" width="3" height="3" fill="currentColor"/>
<rect y="9" width="3" height="3" fill="currentColor"/>
<rect y="12" width="3" height="3" fill="currentColor"/>
<rect y="15" width="3" height="3" fill="currentColor"/>
<rect y="18" width="3" height="3" fill="currentColor"/>
<rect y="21" width="3" height="3" fill="currentColor"/>
<rect y="24" width="3" height="3" fill="currentColor"/>
<rect y="27" width="3" height="3" fill="currentColor"/>
<rect y="30" width="3" height="3" fill="currentColor"/>
<rect y="33" width="3" height="3" fill="currentColor"/>
<rect y="36" width="3" height="3" fill="currentColor"/>
<rect x="33" width="3" height="3" transform="rotate(90 33 0)" fill="currentColor"/>
<rect x="30" width="3" height="3" transform="rotate(90 30 0)" fill="currentColor"/>
<rect x="27" width="3" height="3" transform="rotate(90 27 0)" fill="currentColor"/>
<rect x="24" width="3" height="3" transform="rotate(90 24 0)" fill="currentColor"/>
<rect x="21" width="3" height="3" transform="rotate(90 21 0)" fill="currentColor"/>
<rect x="18" width="3" height="3" transform="rotate(90 18 0)" fill="currentColor"/>
<rect x="15" width="3" height="3" transform="rotate(90 15 0)" fill="currentColor"/>
<rect x="12" width="3" height="3" transform="rotate(90 12 0)" fill="currentColor"/>
<rect x="9" width="3" height="3" transform="rotate(90 9 0)" fill="currentColor"/>
<rect x="6" width="3" height="3" transform="rotate(90 6 0)" fill="currentColor"/>
<rect x="36" y="3" width="3" height="3" transform="rotate(90 36 3)" fill="currentColor"/>
<rect x="9" y="6" width="3" height="3" transform="rotate(90 9 6)" fill="currentColor"/>
<rect x="9" y="3" width="3" height="3" transform="rotate(90 9 3)" fill="currentColor"/>
<rect x="9" y="9" width="3" height="3" transform="rotate(90 9 9)" fill="currentColor"/>
<rect x="30" y="6" width="3" height="3" transform="rotate(90 30 6)" fill="currentColor"/>
<rect x="30" y="3" width="3" height="3" transform="rotate(90 30 3)" fill="currentColor"/>
<rect x="30" y="9" width="3" height="3" transform="rotate(90 30 9)" fill="currentColor"/>
<rect x="24" y="6" width="3" height="3" transform="rotate(90 24 6)" fill="currentColor"/>
<rect x="24" y="3" width="3" height="3" transform="rotate(90 24 3)" fill="currentColor"/>
<rect x="24" y="9" width="3" height="3" transform="rotate(90 24 9)" fill="currentColor"/>
<rect x="30" y="12" width="3" height="3" transform="rotate(90 30 12)" fill="currentColor"/>
<rect x="27" y="12" width="3" height="3" transform="rotate(90 27 12)" fill="currentColor"/>
<rect x="24" y="12" width="3" height="3" transform="rotate(90 24 12)" fill="currentColor"/>
<rect x="21" y="12" width="3" height="3" transform="rotate(90 21 12)" fill="currentColor"/>
<rect x="18" y="12" width="3" height="3" transform="rotate(90 18 12)" fill="currentColor"/>
<rect x="15" y="12" width="3" height="3" transform="rotate(90 15 12)" fill="currentColor"/>
<rect x="12" y="12" width="3" height="3" transform="rotate(90 12 12)" fill="currentColor"/>
<rect x="9" y="12" width="3" height="3" transform="rotate(90 9 12)" fill="currentColor"/>
<rect x="33" y="21" width="3" height="3" transform="rotate(90 33 21)" fill="currentColor"/>
<rect x="30" y="21" width="3" height="3" transform="rotate(90 30 21)" fill="currentColor"/>
<rect x="27" y="21" width="3" height="3" transform="rotate(90 27 21)" fill="currentColor"/>
<rect x="24" y="21" width="3" height="3" transform="rotate(90 24 21)" fill="currentColor"/>
<rect x="21" y="21" width="3" height="3" transform="rotate(90 21 21)" fill="currentColor"/>
<rect x="18" y="21" width="3" height="3" transform="rotate(90 18 21)" fill="currentColor"/>
<rect x="15" y="21" width="3" height="3" transform="rotate(90 15 21)" fill="currentColor"/>
<rect x="12" y="21" width="3" height="3" transform="rotate(90 12 21)" fill="currentColor"/>
<rect x="9" y="21" width="3" height="3" transform="rotate(90 9 21)" fill="currentColor"/>
<rect x="33" y="24" width="3" height="3" transform="rotate(90 33 24)" fill="currentColor"/>
<rect x="9" y="24" width="3" height="3" transform="rotate(90 9 24)" fill="currentColor"/>
<rect x="33" y="27" width="3" height="3" transform="rotate(90 33 27)" fill="currentColor"/>
<rect x="9" y="27" width="3" height="3" transform="rotate(90 9 27)" fill="currentColor"/>
<rect x="33" y="30" width="3" height="3" transform="rotate(90 33 30)" fill="currentColor"/>
<rect x="9" y="30" width="3" height="3" transform="rotate(90 9 30)" fill="currentColor"/>
<rect x="9" y="33" width="3" height="3" transform="rotate(90 9 33)" fill="currentColor"/>
<rect x="33" y="33" width="3" height="3" transform="rotate(90 33 33)" fill="currentColor"/>
<rect x="36" y="36" width="3" height="3" transform="rotate(90 36 36)" fill="currentColor"/>
<rect x="33" y="36" width="3" height="3" transform="rotate(90 33 36)" fill="currentColor"/>
<rect x="30" y="36" width="3" height="3" transform="rotate(90 30 36)" fill="currentColor"/>
<rect x="27" y="36" width="3" height="3" transform="rotate(90 27 36)" fill="currentColor"/>
<rect x="24" y="36" width="3" height="3" transform="rotate(90 24 36)" fill="currentColor"/>
<rect x="21" y="36" width="3" height="3" transform="rotate(90 21 36)" fill="currentColor"/>
<rect x="18" y="36" width="3" height="3" transform="rotate(90 18 36)" fill="currentColor"/>
<rect x="15" y="36" width="3" height="3" transform="rotate(90 15 36)" fill="currentColor"/>
<rect x="12" y="36" width="3" height="3" transform="rotate(90 12 36)" fill="currentColor"/>
<rect x="9" y="36" width="3" height="3" transform="rotate(90 9 36)" fill="currentColor"/>
<rect x="6" y="36" width="3" height="3" transform="rotate(90 6 36)" fill="currentColor"/>
<rect x="39" y="39" width="3" height="3" transform="rotate(-180 39 39)" fill="currentColor"/>
<rect x="39" y="36" width="3" height="3" transform="rotate(-180 39 36)" fill="currentColor"/>
<rect x="39" y="33" width="3" height="3" transform="rotate(-180 39 33)" fill="currentColor"/>
<rect x="39" y="30" width="3" height="3" transform="rotate(-180 39 30)" fill="currentColor"/>
<rect x="39" y="27" width="3" height="3" transform="rotate(-180 39 27)" fill="currentColor"/>
<rect x="39" y="24" width="3" height="3" transform="rotate(-180 39 24)" fill="currentColor"/>
<rect x="39" y="21" width="3" height="3" transform="rotate(-180 39 21)" fill="currentColor"/>
<rect x="39" y="18" width="3" height="3" transform="rotate(-180 39 18)" fill="currentColor"/>
<rect x="39" y="15" width="3" height="3" transform="rotate(-180 39 15)" fill="currentColor"/>
<rect x="39" y="12" width="3" height="3" transform="rotate(-180 39 12)" fill="currentColor"/>
<rect x="39" y="9" width="3" height="3" transform="rotate(-180 39 9)" fill="currentColor"/>
  </symbol>

  <!-- Иконка сердца (для кнопок Like) -->
  <symbol id="heart-small">
<path d="M6 0H3V3H6V0Z" fill="black"/>
<path d="M9 0H6V3H9V0Z" fill="black"/>
<path d="M3 3H0V6H3V3Z" fill="black"/>
<path d="M3 6H0V9H3V6Z" fill="black"/>
<path d="M3 9H0V12H3V9Z" fill="black"/>
<path d="M12 0H9V3H12V0Z" fill="black"/>
<path d="M6 12H3V15H6V12Z" fill="black"/>
<path d="M9 15H6V18H9V15Z" fill="black"/>
<path d="M12 18H9V21H12V18Z" fill="black"/>
<path d="M21 0H24V3H21V0Z" fill="black"/>
<path d="M18 0H21V3H18V0Z" fill="black"/>
<path d="M24 3H27V6H24V3Z" fill="black"/>
<path d="M24 6H27V9H24V6Z" fill="black"/>
<path d="M24 9H27V12H24V9Z" fill="black"/>
<path d="M15 0H18V3H15V0Z" fill="black"/>
<path d="M21 12H24V15H21V12Z" fill="black"/>
<path d="M18 15H21V18H18V15Z" fill="black"/>
<path d="M15 18H18V21H15V18Z" fill="black"/>
<path d="M15 3H12V6H15V3Z" fill="black"/>
<path d="M15 21H12V24H15V21Z" fill="black"/>

  </symbol>
  <symbol id = "edit">
    <path
                d="M5 19h1.4l8.625-8.625-1.4-1.4L5 17.6V19ZM19.3 8.925l-4.25-4.2L17.875 1.9 22.1 6.125l-2.8 2.8ZM3 21v-4.25l10.6-10.6 4.25 4.25L7.25 21H3ZM14.325 9.675l-.7-.7 1.4 1.4-.7-.7Z"
              />
  </symbol>
  <symbol id = "delete">
    <path
                d="M7 21q-.825 0-1.413-.588T5 19V6q-.425 0-.713-.288T4 5q0-.425.288-.713T5 4h4q0-.425.288-.713T10 3h4q.425 0 .713.288T15 4h4q.425 0 .713.288T20 5q0 .425-.288.713T19 6v13q0 .825-.588 1.413T17 21H7ZM17 6H7v13h10V6ZM7 6v13V6Zm5 7.9 1.9 1.9q.275.275.7.275t.7-.275q.275-.275.275-.7t-.275-.7l-1.9-1.9 1.9-1.9q.275-.275.275-.7t-.275-.7q-.275-.275-.7-.275t-.7.275L12 11.1l-1.9-1.9q-.275-.275-.7-.275t-.7.275q-.275.275-.275.7t.275.7l1.9 1.9-1.9 1.9q-.275.275-.275.7t.275.7q.275.275.7.275t.7-.275l1.9-1.9Z"
              />
  </symbol>
</svg>

